<svg xmlns="http://www.w3.org/2000/svg" width="538" height="80" viewBox="0 0 538 80" fill="none">
<g clip-path="url(#clip0_299_287)">
<rect width="537.394" height="79.825" fill="#FDFDFD"></rect>
<path d="M106.5 76.4687C106.5 76.5625 106.506 76.6562 106.506 76.75C106.506 76.5937 106.506 76.4312 106.506 76.275C106.506 76.3375 106.506 76.4062 106.506 76.4687H106.5Z" fill="#00A79D"></path>
<path d="M169.938 14.2938H118.157C117.001 14.2938 116.057 15.2313 116.057 16.3875V23.15C116.057 24.3063 117.001 25.2438 118.157 25.2438H137.807V63.9375C137.807 65.0938 138.751 66.0313 139.907 66.0313H148.938C150.095 66.0313 151.032 65.0938 151.032 63.9375V25.2438H169.945C171.101 25.2438 172.044 24.3063 172.044 23.15V16.3875C172.044 15.2313 171.101 14.2938 169.945 14.2938H169.938Z" fill="#070707"></path>
<path d="M287.794 14.0185H279.731C278.319 14.0185 277.162 15.1685 277.162 16.581V45.756L250.306 15.056C249.819 14.506 249.119 14.1872 248.381 14.1872H240.062C238.65 14.1872 237.5 15.3372 237.5 16.7497V63.7497C237.5 65.1622 238.65 66.3122 240.062 66.3122H248.187C249.6 66.3122 250.75 65.1622 250.75 63.7497V33.8122L277.587 65.2435C278.075 65.8185 278.787 66.1435 279.537 66.1435H287.794C289.206 66.1435 290.362 64.9935 290.362 63.581V16.5872C290.362 15.1747 289.212 14.0247 287.794 14.0247V14.0185Z" fill="#070707"></path>
<path d="M226.181 25.2561C227.337 25.2561 228.281 24.3186 228.281 23.1561V16.3936C228.281 15.2374 227.344 14.2999 226.187 14.2999H182.1C180.944 14.2999 180 15.2374 180 16.3999V57.8936C180 62.3999 183.65 66.0499 188.156 66.0499H225.956C227.112 66.0499 228.056 65.1124 228.056 63.9499V57.1874C228.056 56.0311 227.119 55.0936 225.962 55.0936H196.175C194.569 55.0936 193.269 53.7936 193.269 52.1874V45.6561H224.762C225.919 45.6561 226.862 44.7186 226.862 43.5561V36.7936C226.862 35.6374 225.925 34.6999 224.769 34.6999H193.275V25.2624H226.187L226.181 25.2561Z" fill="#070707"></path>
<path d="M341.044 14.1621H301.669C300.513 14.1621 299.575 15.0996 299.575 16.2558V64.0871C299.575 65.2433 300.513 66.1808 301.669 66.1808H341.056C348.881 66.1808 355.225 59.8371 355.225 52.0121V28.3308C355.225 20.4996 348.881 14.1558 341.05 14.1558L341.044 14.1621ZM341.813 46.9183C341.813 50.8308 338.638 54.0058 334.725 54.0058H312.725V25.2371H334.731C338.644 25.2371 341.813 28.4058 341.813 32.3183V46.9246V46.9183Z" fill="#070707"></path>
<path d="M522.582 14.1621H483.838C482.682 14.1621 481.744 15.0996 481.744 16.2558V64.0871C481.744 65.2433 482.682 66.1808 483.838 66.1808H522.582C530.751 66.1808 537.394 59.5371 537.394 51.3683V28.9683C537.394 20.7996 530.751 14.1558 522.582 14.1558V14.1621ZM523.982 46.9871C523.982 50.8621 520.838 54.0058 516.963 54.0058H494.894V25.2371H516.963C520.838 25.2371 523.982 28.3808 523.982 32.2558V46.9933V46.9871Z" fill="#070707"></path>
<path d="M472.332 62.9622L464.464 47.281C468.907 47.0747 472.457 44.7372 472.457 37.981V24.9435C472.457 18.981 468.157 14.306 461.214 14.306H423.853C422.812 14.306 421.982 15.3122 421.982 16.3924V18.2247L422.12 45.5435V63.931C422.12 65.0872 423.064 66.0247 424.22 66.0247H432.864C434.02 66.0247 434.957 65.0872 434.957 63.931V47.2872H450.732L459.976 64.8497C460.339 65.5372 461.051 65.9622 461.82 65.9622L470.451 65.9935H470.457C471.189 65.9935 471.857 65.6247 472.239 64.9997C472.626 64.3747 472.657 63.6122 472.332 62.956V62.9622ZM460.632 31.5997C460.632 34.231 458.501 36.356 455.876 36.356H434.957V25.1997H455.876C458.507 25.1997 460.632 27.331 460.632 29.956V31.5935V31.5997Z" fill="#070707"></path>
<path d="M410.62 25.2561C411.776 25.2561 412.72 24.3186 412.72 23.1561V16.3936C412.72 15.2374 411.782 14.2999 410.626 14.2999H366.538C365.382 14.2999 364.438 15.2374 364.438 16.3999V57.8936C364.438 62.3999 368.088 66.0499 372.595 66.0499H410.395C411.551 66.0499 412.495 65.1124 412.495 63.9499V57.1874C412.495 56.0311 411.557 55.0936 410.401 55.0936H380.613C379.007 55.0936 377.707 53.7936 377.707 52.1874V45.6561H409.201C410.357 45.6561 411.301 44.7186 411.301 43.5561V36.7936C411.301 35.6374 410.363 34.6999 409.207 34.6999H377.713V25.2624H410.626L410.62 25.2561Z" fill="#070707"></path>
<path d="M76.2925 62.7729C76.0425 61.2291 74.9738 59.9979 74.1113 58.9979C73.8863 58.7354 73.655 58.4666 73.53 58.2979C65.83 47.5166 65.605 33.7354 72.9488 23.1854C73.0925 22.9791 73.3988 22.6041 73.7238 22.2166C75.1175 20.5354 76.055 19.3291 76.2925 17.9791C76.6363 16.0166 76.0613 14.0166 74.755 12.6291C73.5488 11.3479 71.8488 10.7291 70.0988 10.9291C67.5363 11.2229 65.7863 13.6166 64.63 15.1979L64.405 15.5041C54.5488 28.8291 53.6363 47.4291 62.1425 61.7854C62.2738 62.0104 65.4425 67.3354 67.605 68.7729C68.5738 69.4229 69.68 69.7604 70.7925 69.7604C71.83 69.7604 72.8488 69.4604 73.73 68.8916C75.6925 67.6291 76.6988 65.2229 76.2988 62.7666L76.2925 62.7729Z" fill="#FF3C00"></path>
<path d="M86.479 34.323H85.2103H76.1103C75.054 34.323 74.0603 34.848 73.4791 35.7292C72.6791 36.9417 72.2166 38.3917 72.2166 39.9542C72.2166 41.5167 72.6853 42.9668 73.4791 44.1793C74.0603 45.0605 75.054 45.5855 76.1103 45.5855H85.2103H86.6978C89.9228 45.5855 92.5166 42.873 92.3166 39.6105C92.1353 36.6042 89.4915 34.3292 86.479 34.3292V34.323Z" fill="#FF3C00"></path>
<path d="M5.84809 45.5855H7.11685H16.2168C17.2731 45.5855 18.2668 45.0605 18.8481 44.1793C19.6481 42.9668 20.1106 41.5167 20.1106 39.9542C20.1106 38.3917 19.6418 36.9417 18.8481 35.7292C18.2668 34.848 17.2731 34.323 16.2168 34.323H7.11685H5.62935C2.40435 34.323 -0.189405 37.0355 0.0105954 40.298C0.191845 43.3043 2.83559 45.5792 5.84809 45.5792V45.5855Z" fill="#FF3C00"></path>
<path d="M40.5173 5.84822V7.11697V33.6795C40.5173 34.7357 41.0423 35.7295 41.9236 36.3107C43.1361 37.1107 44.5861 37.5732 46.1486 37.5732C47.7111 37.5732 49.1798 37.1045 50.3923 36.292C51.2611 35.717 51.7736 34.742 51.7736 33.6982V7.11697V5.62947C51.7736 2.40447 49.0611 -0.189283 45.7986 0.0107175C42.7923 0.191967 40.5173 2.83572 40.5173 5.84822Z" fill="#FF3C00"></path>
<path d="M51.7798 73.9733V72.7045V46.1483C51.7798 45.092 51.2548 44.0983 50.3736 43.517C49.1611 42.717 47.7111 42.2545 46.1486 42.2545C44.5861 42.2545 43.1361 42.7233 41.9236 43.517C41.0423 44.0983 40.5173 45.092 40.5173 46.1483V72.7045V74.192C40.5173 77.417 43.2298 80.0108 46.4923 79.8108C49.4986 79.6295 51.7736 76.9858 51.7736 73.9733H51.7798Z" fill="#FF3C00"></path>
<path d="M15.9923 62.7668C16.2423 61.223 17.311 59.9918 18.1735 58.9918C18.3985 58.7293 18.6298 58.4605 18.7548 58.2918C26.4548 47.5105 26.6798 33.7293 19.336 23.1793C19.1923 22.973 18.886 22.598 18.561 22.2105C17.1673 20.5293 16.2298 19.323 15.9923 17.973C15.6485 16.0105 16.2235 14.0105 17.5298 12.623C18.736 11.3418 20.436 10.723 22.186 10.923C24.7485 11.2168 26.4985 13.6105 27.6548 15.1918L27.8798 15.498C37.736 28.823 38.6485 47.423 30.1423 61.7793C30.011 62.0043 26.8423 67.3293 24.6798 68.7668C23.711 69.4168 22.6048 69.7543 21.4923 69.7543C20.4548 69.7543 19.436 69.4543 18.5548 68.8855C16.5923 67.623 15.586 65.2168 15.986 62.7605L15.9923 62.7668Z" fill="#FF3C00"></path>
</g>
<defs><clipPath id="clip0_299_287"><rect width="537.394" height="79.825" fill="white"></rect></clipPath></defs>
</svg>